<svg width="82" height="82" viewBox="0 0 82 82" fill="none" xmlns="http://www.w3.org/2000/svg">
<g clip-path="url(#clip0)">
<path d="M25.767 0L9.56055 26.0204L21.8625 34.321L36.7784 33.6841L37.103 19.1831L25.767 0Z" fill="#DEDAFF"/>
<path d="M36.7784 33.6841L9.56055 26.0204L24.1329 79.771L28.9282 81.8455H41.2045L43.1715 50.9478L36.7784 33.6841Z" fill="#A096FF"/>
<path d="M46.0325 23.1182L36.7778 33.6841L41.204 81.8455L53.8101 72.218L58.1312 20.3699L46.0325 23.1182Z" fill="#6052E0"/>
<path d="M36.7785 33.6841L58.1318 20.3699L25.7671 0L36.7785 33.6841Z" fill="#A096FF"/>
<path d="M67.6133 9.59125H72.4092V23.9784H67.6133V9.59125Z" fill="#DDDAFF"/>
<path d="M62.8174 14.3871H77.2039V19.1824H62.8174V14.3871Z" fill="#DDDAFF"/>
<path d="M4.94971 0H9.74501V14.3872H4.94971V0Z" fill="white"/>
<path d="M0.153809 4.79593H14.541V9.59123H0.153809V4.79593Z" fill="white"/>
<path d="M0.153809 19.1825H4.94974V23.9784H0.153809V19.1825Z" fill="white"/>
<path d="M48.4302 4.79593H53.2261V9.59123H48.4302V4.79593Z" fill="#DDDAFF"/>
<path d="M77.2036 4.79593H81.9995V9.59123H77.2036V4.79593Z" fill="#DDDAFF"/>
<path d="M28.9281 48.8721L18.1626 50.9572L16.9389 62.6899L12.1436 70.8354L16.9389 81.8455H28.9281V48.8721Z" fill="#6052E0"/>
<path d="M0 55.2245L10.5209 81.8455H16.939V62.6899L9.56058 54.6427L0 55.2245Z" fill="#A096FF"/>
<path d="M0 55.2245L16.939 62.6899L28.9282 48.8721L5.94768 37.3815L0 55.2245Z" fill="#DEDAFF"/>
<path d="M81.9999 60.9382L72.6039 54.1779L63.2085 57.0087L52.3322 69.5366L51.3081 81.8455H61.4123L81.9999 60.9382Z" fill="#6052E0"/>
<path d="M63.209 57.0088L82.0004 60.9382V28.0993L67.0696 43.6914L63.209 57.0088Z" fill="#A096FF"/>
<path d="M82 28.0993L58.6046 33.9488L56.3662 46.7575L63.2085 57.0088L82 28.0993Z" fill="#DEDAFF"/>
<path d="M58.6047 33.9487L41.2046 81.8455H51.3082L63.2086 57.0087L58.6047 33.9487Z" fill="#A096FF"/>
</g>
<defs>
<clipPath id="clip0">
<rect width="82" height="82" fill="white"/>
</clipPath>
</defs>
</svg>
