<svg width="406" height="120" viewBox="0 0 406 120" fill="none" xmlns="http://www.w3.org/2000/svg">
<g clip-path="url(#clip0)">
<path d="M25.767 19L9.56055 45.0204L21.8625 53.321L36.7784 52.6841L37.103 38.1831L25.767 19Z" fill="#DEDAFF"/>
<path d="M36.7784 52.6841L9.56055 45.0204L24.1329 98.771L28.9282 100.845H41.2045L43.1715 69.9478L36.7784 52.6841Z" fill="#A096FF"/>
<path d="M46.0325 42.1182L36.7778 52.6841L41.204 100.845L53.8101 91.218L58.1312 39.3699L46.0325 42.1182Z" fill="#6052E0"/>
<path d="M36.7785 52.6841L58.1318 39.3699L25.7671 19L36.7785 52.6841Z" fill="#A096FF"/>
<path d="M67.6133 28.5913H72.4092V42.9784H67.6133V28.5913Z" fill="#DDDAFF"/>
<path d="M62.8174 33.3871H77.2039V38.1824H62.8174V33.3871Z" fill="#DDDAFF"/>
<path d="M4.94971 19H9.74501V33.3872H4.94971V19Z" fill="white"/>
<path d="M0.153809 23.7959H14.541V28.5912H0.153809V23.7959Z" fill="white"/>
<path d="M0.153809 38.1825H4.94974V42.9784H0.153809V38.1825Z" fill="white"/>
<path d="M48.4302 23.7959H53.2261V28.5912H48.4302V23.7959Z" fill="#DDDAFF"/>
<path d="M77.2036 23.7959H81.9995V28.5912H77.2036V23.7959Z" fill="#DDDAFF"/>
<path d="M28.9281 67.8721L18.1626 69.9572L16.9389 81.6899L12.1436 89.8354L16.9389 100.846H28.9281V67.8721Z" fill="#6052E0"/>
<path d="M0 74.2245L10.5209 100.846H16.939V81.6899L9.56058 73.6427L0 74.2245Z" fill="#A096FF"/>
<path d="M0 74.2245L16.939 81.6899L28.9282 67.8721L5.94768 56.3815L0 74.2245Z" fill="#DEDAFF"/>
<path d="M81.9999 79.9382L72.6039 73.1779L63.2085 76.0087L52.3322 88.5366L51.3081 100.845H61.4123L81.9999 79.9382Z" fill="#6052E0"/>
<path d="M63.209 76.0088L82.0004 79.9382V47.0993L67.0696 62.6914L63.209 76.0088Z" fill="#A096FF"/>
<path d="M82 47.0993L58.6046 52.9488L56.3662 65.7575L63.2085 76.0088L82 47.0993Z" fill="#DEDAFF"/>
<path d="M58.6047 52.9487L41.2046 100.845H51.3082L63.2086 76.0087L58.6047 52.9487Z" fill="#A096FF"/>
</g>
<path d="M140.672 47C138.08 46.968 135.728 46.52 133.616 45.656C131.504 44.76 129.68 43.544 128.144 42.008C126.64 40.472 125.472 38.696 124.64 36.68C123.84 34.664 123.44 32.504 123.44 30.2C123.44 27.896 123.84 25.736 124.64 23.72C125.472 21.704 126.64 19.928 128.144 18.392C129.68 16.856 131.504 15.656 133.616 14.792C135.728 13.896 138.08 13.432 140.672 13.4H145.424V18.44H140.816C138.576 18.472 136.576 19.016 134.816 20.072C133.088 21.096 131.712 22.488 130.688 24.248C129.696 26.008 129.2 27.992 129.2 30.2C129.2 32.44 129.696 34.44 130.688 36.2C131.712 37.96 133.088 39.352 134.816 40.376C136.576 41.4 138.576 41.912 140.816 41.912L145.424 41.912V47L140.672 47ZM150.386 47V29.48C150.386 27.304 150.994 25.608 152.21 24.392C153.458 23.144 155.17 22.52 157.346 22.52H163.25V27.224H158.354C157.586 27.224 156.978 27.464 156.53 27.944C156.114 28.392 155.906 28.984 155.906 29.72V47H150.386ZM176.102 56.744V47.336C173.35 46.824 171.158 45.608 169.526 43.688C167.894 41.736 167.078 39.384 167.078 36.632V22.52H172.598V36.584C172.598 37.832 172.87 38.936 173.414 39.896C173.99 40.824 174.742 41.56 175.67 42.104C176.63 42.616 177.67 42.872 178.79 42.872C179.91 42.872 180.934 42.616 181.862 42.104C182.79 41.56 183.542 40.824 184.118 39.896C184.694 38.936 184.982 37.832 184.982 36.584V22.52H190.502V36.632C190.502 39.352 189.686 41.688 188.054 43.64C186.454 45.56 184.294 46.776 181.574 47.288V56.744H176.102ZM197.029 47V42.296H208.837C209.701 42.296 210.389 42.04 210.901 41.528C211.445 40.984 211.717 40.344 211.717 39.608C211.717 38.904 211.461 38.296 210.949 37.784C210.469 37.24 209.813 36.968 208.981 36.968H204.181C201.813 36.968 199.861 36.392 198.325 35.24C196.821 34.088 196.069 32.264 196.069 29.768C196.069 28.488 196.389 27.304 197.029 26.216C197.701 25.096 198.597 24.2 199.717 23.528C200.837 22.856 202.101 22.52 203.509 22.52H214.885V27.224H204.037C203.301 27.224 202.693 27.464 202.213 27.944C201.733 28.392 201.493 28.952 201.493 29.624C201.493 30.264 201.733 30.824 202.213 31.304C202.693 31.784 203.333 32.024 204.133 32.024H208.789C211.413 32.024 213.461 32.632 214.933 33.848C216.405 35.064 217.141 36.92 217.141 39.416C217.141 40.792 216.805 42.056 216.133 43.208C215.461 44.328 214.533 45.24 213.349 45.944C212.197 46.648 210.885 47 209.413 47H197.029ZM230.369 47C228.161 47 226.449 46.376 225.233 45.128C224.017 43.88 223.409 42.184 223.409 40.04V27.224L219.185 27.224V22.52L223.409 22.52V16.376H228.881V22.52H236.513V27.224H228.881V39.8C228.881 40.536 229.089 41.144 229.505 41.624C229.953 42.072 230.561 42.296 231.329 42.296L236.465 42.296V47L230.369 47ZM250.795 47.576C248.459 47.576 246.443 47 244.747 45.848C243.051 44.696 241.739 43.16 240.811 41.24C239.915 39.288 239.467 37.144 239.467 34.808C239.467 32.376 239.979 30.2 241.003 28.28C242.027 26.328 243.499 24.792 245.419 23.672C247.371 22.52 249.707 21.944 252.427 21.944C255.083 21.944 257.355 22.52 259.243 23.672C261.131 24.792 262.571 26.328 263.563 28.28C264.555 30.2 265.051 32.344 265.051 34.712V47H259.531V42.44H259.435C258.699 43.784 257.643 44.984 256.267 46.04C254.891 47.064 253.067 47.576 250.795 47.576ZM252.283 42.872C253.723 42.872 254.971 42.52 256.027 41.816C257.115 41.08 257.963 40.104 258.571 38.888C259.179 37.64 259.467 36.248 259.435 34.712C259.435 33.176 259.147 31.816 258.571 30.632C257.995 29.416 257.179 28.456 256.123 27.752C255.067 27.016 253.803 26.648 252.331 26.648C250.795 26.648 249.483 27.016 248.395 27.752C247.339 28.456 246.507 29.432 245.899 30.68C245.323 31.896 245.035 33.256 245.035 34.76C245.035 36.264 245.323 37.64 245.899 38.888C246.475 40.104 247.291 41.08 248.347 41.816C249.435 42.52 250.747 42.872 252.283 42.872ZM271.656 47V11.96H277.176V47L271.656 47Z" fill="#6052E0"/>
<path d="M149.888 117.512C147.264 117.512 145.184 116.792 143.648 115.352C142.112 113.912 141.344 111.912 141.344 109.352C141.344 108.936 141.36 108.504 141.392 108.056C141.424 107.64 141.472 107.208 141.536 106.76C138.912 106.856 136.512 106.488 134.336 105.656C132.16 104.824 130.272 103.64 128.672 102.104C127.104 100.568 125.888 98.76 125.024 96.68C124.16 94.568 123.728 92.28 123.728 89.816C123.728 87.48 124.128 85.288 124.928 83.24C125.728 81.16 126.88 79.352 128.384 77.816C129.888 76.248 131.696 75.032 133.808 74.168C135.92 73.272 138.272 72.824 140.864 72.824C143.488 72.824 145.856 73.256 147.968 74.12C150.08 74.984 151.888 76.184 153.392 77.72C154.896 79.224 156.048 80.984 156.848 83C157.648 85.016 158.048 87.16 158.048 89.432V108.632C158.048 111.192 157.344 113.304 155.936 114.968C154.56 116.664 152.544 117.512 149.888 117.512ZM140.864 101.768C141.824 101.768 142.736 101.672 143.6 101.48C144.368 100.04 145.44 98.584 146.816 97.112C148.192 95.64 150.016 94.248 152.288 92.936V89.432C152.288 87.224 151.792 85.256 150.8 83.528C149.808 81.768 148.448 80.392 146.72 79.4C145.024 78.376 143.072 77.864 140.864 77.864C138.688 77.864 136.736 78.392 135.008 79.448C133.28 80.472 131.92 81.896 130.928 83.72C129.936 85.512 129.44 87.544 129.44 89.816C129.44 92.088 129.936 94.136 130.928 95.96C131.92 97.752 133.28 99.176 135.008 100.232C136.736 101.256 138.688 101.768 140.864 101.768ZM149.504 112.376C150.368 112.376 151.04 112.056 151.52 111.416C152.032 110.776 152.288 109.896 152.288 108.776L152.288 98.792C150.464 100.136 149.168 101.464 148.4 102.776C147.632 104.088 147.152 105.272 146.96 106.328C146.8 107.384 146.72 108.184 146.72 108.728C146.72 109.912 146.992 110.808 147.536 111.416C148.112 112.056 148.768 112.376 149.504 112.376ZM175.79 107.576C173.422 107.576 171.358 107.112 169.598 106.184C167.838 105.224 166.478 103.912 165.518 102.248C164.558 100.584 164.078 98.712 164.078 96.632V82.52L169.598 82.52V96.584C169.598 97.832 169.87 98.936 170.414 99.896C170.99 100.824 171.742 101.56 172.67 102.104C173.63 102.616 174.67 102.872 175.79 102.872C176.91 102.872 177.934 102.616 178.862 102.104C179.79 101.56 180.542 100.824 181.118 99.896C181.694 98.936 181.982 97.832 181.982 96.584V82.52H187.502V96.632C187.502 98.712 187.006 100.584 186.014 102.248C185.054 103.912 183.694 105.224 181.934 106.184C180.206 107.112 178.158 107.576 175.79 107.576ZM206.509 107C203.757 107 201.341 106.488 199.261 105.464C197.213 104.408 195.613 102.968 194.461 101.144C193.309 99.288 192.733 97.16 192.733 94.76C192.733 92.232 193.245 90.008 194.269 88.088C195.293 86.168 196.701 84.664 198.493 83.576C200.285 82.488 202.349 81.944 204.685 81.944C207.309 81.944 209.469 82.504 211.165 83.624C212.861 84.744 214.109 86.248 214.909 88.136C215.741 90.024 216.156 92.136 216.156 94.472C216.156 95.24 216.093 95.928 215.965 96.536H198.589C198.877 98.424 199.757 99.864 201.229 100.856C202.701 101.816 204.461 102.296 206.509 102.296H213.085V107H206.509ZM198.541 92.792H210.637C210.605 91.768 210.381 90.776 209.965 89.816C209.549 88.824 208.909 88.024 208.045 87.416C207.213 86.808 206.093 86.504 204.685 86.504C203.405 86.504 202.317 86.824 201.421 87.464C200.557 88.072 199.885 88.856 199.405 89.816C198.925 90.776 198.637 91.768 198.541 92.792ZM221.216 107V102.296H233.024C233.888 102.296 234.576 102.04 235.088 101.528C235.632 100.984 235.904 100.344 235.904 99.608C235.904 98.904 235.648 98.296 235.136 97.784C234.656 97.24 234 96.968 233.168 96.968H228.368C226 96.968 224.048 96.392 222.512 95.24C221.008 94.088 220.256 92.264 220.256 89.768C220.256 88.488 220.576 87.304 221.216 86.216C221.888 85.096 222.784 84.2 223.904 83.528C225.024 82.856 226.288 82.52 227.696 82.52H239.072V87.224H228.224C227.488 87.224 226.88 87.464 226.4 87.944C225.92 88.392 225.68 88.952 225.68 89.624C225.68 90.264 225.92 90.824 226.4 91.304C226.88 91.784 227.52 92.024 228.32 92.024H232.976C235.6 92.024 237.648 92.632 239.12 93.848C240.592 95.064 241.328 96.92 241.328 99.416C241.328 100.792 240.992 102.056 240.32 103.208C239.648 104.328 238.72 105.24 237.536 105.944C236.384 106.648 235.072 107 233.6 107H221.216ZM254.557 107C252.349 107 250.637 106.376 249.421 105.128C248.205 103.88 247.597 102.184 247.597 100.04V87.224H243.373V82.52H247.597V76.376H253.069V82.52L260.701 82.52V87.224L253.069 87.224L253.069 99.8C253.069 100.536 253.277 101.144 253.693 101.624C254.141 102.072 254.749 102.296 255.517 102.296H260.653V107H254.557ZM265.89 107V71.96H271.41V84.968C272.402 83.912 273.554 83.144 274.866 82.664C276.178 82.184 277.506 81.944 278.85 81.944C281.09 81.944 282.994 82.424 284.562 83.384C286.162 84.312 287.378 85.608 288.21 87.272C289.042 88.904 289.458 90.776 289.458 92.888V107H283.986V92.936C283.986 91.688 283.682 90.6 283.074 89.672C282.498 88.712 281.73 87.976 280.77 87.464C279.842 86.92 278.802 86.648 277.65 86.648C276.562 86.648 275.538 86.904 274.578 87.416C273.618 87.928 272.85 88.648 272.274 89.576C271.698 90.504 271.41 91.56 271.41 92.744V107H265.89ZM307.742 107.576C305.214 107.576 302.958 107.016 300.974 105.896C299.022 104.744 297.486 103.208 296.366 101.288C295.246 99.336 294.686 97.16 294.686 94.76C294.686 92.36 295.246 90.2 296.366 88.28C297.486 86.328 299.022 84.792 300.974 83.672C302.958 82.52 305.214 81.944 307.742 81.944C310.238 81.944 312.462 82.52 314.414 83.672C316.398 84.792 317.95 86.328 319.07 88.28C320.19 90.2 320.75 92.36 320.75 94.76C320.75 97.16 320.19 99.336 319.07 101.288C317.95 103.208 316.398 104.744 314.414 105.896C312.462 107.016 310.238 107.576 307.742 107.576ZM307.742 102.872C309.246 102.872 310.558 102.52 311.678 101.816C312.798 101.08 313.662 100.104 314.27 98.888C314.878 97.64 315.182 96.264 315.182 94.76C315.182 93.256 314.878 91.896 314.27 90.68C313.662 89.432 312.798 88.456 311.678 87.752C310.558 87.016 309.246 86.648 307.742 86.648C306.206 86.648 304.878 87.016 303.758 87.752C302.67 88.456 301.806 89.432 301.166 90.68C300.558 91.896 300.254 93.256 300.254 94.76C300.254 96.264 300.558 97.64 301.166 98.888C301.806 100.104 302.67 101.08 303.758 101.816C304.878 102.52 306.206 102.872 307.742 102.872ZM337.696 107.576C335.328 107.576 333.264 107.112 331.504 106.184C329.744 105.224 328.384 103.912 327.424 102.248C326.464 100.584 325.984 98.712 325.984 96.632V82.52H331.504V96.584C331.504 97.832 331.776 98.936 332.32 99.896C332.896 100.824 333.648 101.56 334.576 102.104C335.536 102.616 336.576 102.872 337.696 102.872C338.816 102.872 339.84 102.616 340.768 102.104C341.696 101.56 342.448 100.824 343.024 99.896C343.6 98.936 343.888 97.832 343.888 96.584V82.52H349.408V96.632C349.408 98.712 348.912 100.584 347.92 102.248C346.96 103.912 345.6 105.224 343.84 106.184C342.112 107.112 340.064 107.576 337.696 107.576ZM355.935 107V102.296H367.743C368.607 102.296 369.295 102.04 369.807 101.528C370.351 100.984 370.623 100.344 370.623 99.608C370.623 98.904 370.367 98.296 369.855 97.784C369.375 97.24 368.719 96.968 367.887 96.968H363.087C360.719 96.968 358.767 96.392 357.231 95.24C355.727 94.088 354.975 92.264 354.975 89.768C354.975 88.488 355.295 87.304 355.935 86.216C356.607 85.096 357.503 84.2 358.623 83.528C359.743 82.856 361.007 82.52 362.415 82.52H373.791V87.224H362.943C362.207 87.224 361.599 87.464 361.119 87.944C360.639 88.392 360.399 88.952 360.399 89.624C360.399 90.264 360.639 90.824 361.119 91.304C361.599 91.784 362.239 92.024 363.039 92.024H367.695C370.319 92.024 372.367 92.632 373.839 93.848C375.311 95.064 376.047 96.92 376.047 99.416C376.047 100.792 375.711 102.056 375.039 103.208C374.367 104.328 373.439 105.24 372.255 105.944C371.103 106.648 369.791 107 368.319 107H355.935ZM393.915 107C391.163 107 388.747 106.488 386.667 105.464C384.619 104.408 383.019 102.968 381.867 101.144C380.715 99.288 380.139 97.16 380.139 94.76C380.139 92.232 380.651 90.008 381.675 88.088C382.699 86.168 384.107 84.664 385.899 83.576C387.691 82.488 389.755 81.944 392.091 81.944C394.715 81.944 396.875 82.504 398.571 83.624C400.267 84.744 401.515 86.248 402.315 88.136C403.147 90.024 403.563 92.136 403.563 94.472C403.563 95.24 403.499 95.928 403.371 96.536H385.995C386.283 98.424 387.163 99.864 388.635 100.856C390.107 101.816 391.867 102.296 393.915 102.296H400.491V107H393.915ZM385.947 92.792H398.043C398.011 91.768 397.787 90.776 397.371 89.816C396.955 88.824 396.315 88.024 395.451 87.416C394.619 86.808 393.499 86.504 392.091 86.504C390.811 86.504 389.723 86.824 388.827 87.464C387.963 88.072 387.291 88.856 386.811 89.816C386.331 90.776 386.043 91.768 385.947 92.792Z" fill="white"/>
<defs>
<clipPath id="clip0">
<rect width="82" height="82" fill="white" transform="translate(0 19)"/>
</clipPath>
</defs>
</svg>
